<?xml version="1.0" standalone="no"?>
<!DOCTYPE svg PUBLIC "-//W3C//DTD SVG 20010904//EN"
 "http://www.w3.org/TR/2001/REC-SVG-20010904/DTD/svg10.dtd">
<svg version="1.0" xmlns="http://www.w3.org/2000/svg"
 width="512.000000pt" height="512.000000pt" viewBox="0 0 512.000000 512.000000"
 preserveAspectRatio="xMidYMid meet">
<metadata>
Created by potrace 1.14, written by Peter Selinger 2001-2017
</metadata>
<g transform="translate(0.000000,512.000000) scale(0.100000,-0.100000)"
fill="#000000" stroke="none">
<path d="M1439 4725 c-1 -3 -2 -9 -3 -14 -2 -15 -16 -26 -16 -13 0 7 -8 12
-17 12 -15 0 -16 -2 -3 -10 8 -5 12 -12 8 -15 -3 -3 -14 2 -24 12 -17 17 -17
17 -12 -3 3 -13 1 -21 -8 -21 -8 0 -14 3 -14 7 0 4 -6 7 -14 7 -12 0 -12 -5 1
-26 15 -24 14 -24 -10 3 -15 16 -27 25 -27 20 0 -6 5 -15 10 -20 8 -8 2 -10
-19 -9 -22 1 -28 -2 -21 -10 6 -7 3 -11 -11 -12 -12 -1 -17 3 -13 9 4 7 2 8
-5 4 -6 -4 -8 -12 -5 -18 5 -8 1 -9 -10 -5 -9 4 -15 3 -12 -2 3 -4 -6 -23 -21
-42 -14 -19 -23 -26 -19 -16 16 44 16 50 1 24 -10 -17 -21 -25 -28 -20 -8 4
-8 1 1 -9 11 -14 11 -16 0 -14 -7 1 -20 5 -28 10 -12 7 -13 6 -2 -5 15 -17 16
-33 0 -23 -7 5 -9 2 -6 -8 5 -11 0 -14 -20 -11 -21 4 -24 2 -12 -6 13 -9 13
-12 1 -23 -8 -7 -11 -8 -8 -2 4 7 1 14 -7 17 -10 4 -12 0 -8 -16 5 -20 4 -21
-14 -7 -10 8 -16 11 -12 6 10 -12 -11 -48 -22 -41 -6 4 -7 -1 -3 -11 5 -13 3
-15 -7 -9 -10 6 -11 4 -4 -6 12 -20 14 -40 3 -33 -5 3 -9 0 -9 -6 0 -6 -4 -8
-10 -5 -5 3 -18 1 -27 -5 -17 -11 -17 -11 0 -6 21 7 23 -12 2 -20 -8 -4 -15
-10 -15 -16 0 -5 5 -6 12 -2 6 4 8 3 4 -4 -3 -5 0 -13 6 -16 7 -3 4 -4 -7 -3
-14 1 -20 -5 -23 -23 -1 -14 -3 -31 -4 -37 -1 -9 -5 -10 -14 -2 -10 8 -11 5
-7 -13 4 -13 11 -27 17 -31 6 -5 1 -6 -11 -2 -15 4 -21 2 -19 -9 1 -9 6 -19
11 -23 4 -4 5 -2 0 6 -5 10 -4 12 4 7 17 -11 3 -26 -17 -19 -9 3 -14 3 -10 -2
4 -4 0 -14 -10 -22 -16 -12 -16 -13 2 -6 14 5 17 3 11 -7 -5 -9 -4 -11 3 -6
19 11 14 -5 -5 -21 -10 -8 -12 -12 -5 -8 8 4 12 -1 12 -15 0 -12 -4 -19 -9
-16 -16 10 -6 -20 12 -38 20 -21 23 -33 3 -17 -11 9 -16 9 -22 0 -4 -7 -3 -9
3 -6 16 10 34 -38 20 -53 -10 -10 -8 -12 7 -6 14 5 16 3 9 -6 -7 -9 -7 -21 0
-38 13 -33 16 -60 5 -54 -4 3 -8 0 -8 -5 0 -6 4 -11 8 -11 13 0 33 -50 25 -63
-4 -7 2 -5 13 3 10 8 16 10 11 5 -4 -4 -1 -18 6 -29 7 -12 12 -33 12 -48 -1
-23 1 -25 14 -15 12 10 14 9 8 -5 -3 -10 -1 -20 5 -24 7 -4 8 -3 4 4 -10 16 2
15 19 -2 8 -7 11 -17 7 -21 -4 -5 1 -5 10 -2 12 4 15 2 11 -9 -3 -8 1 -14 11
-14 9 0 16 -7 16 -15 0 -12 4 -13 18 -6 14 7 19 6 20 -5 1 -7 3 -21 4 -29 1
-11 5 -12 14 -4 7 6 19 9 26 6 8 -4 7 -6 -4 -6 -10 -1 -18 -5 -18 -10 0 -6 9
-8 20 -6 11 2 20 0 20 -5 0 -5 7 -6 17 -3 11 5 14 3 8 -6 -5 -10 -2 -11 12 -7
14 5 23 -1 33 -19 8 -16 16 -21 20 -14 5 7 9 5 13 -5 4 -10 13 -13 23 -9 10 4
15 2 11 -4 -3 -5 0 -10 8 -10 8 0 12 4 10 8 -3 4 2 10 11 13 8 3 13 2 10 -2
-6 -10 3 -22 29 -42 18 -14 19 -13 8 1 -7 9 -9 20 -5 24 4 5 1 5 -7 0 -9 -5
-12 -4 -7 3 11 18 24 14 31 -8 3 -11 13 -20 21 -20 17 0 18 -12 2 -29 -7 -7
-8 -12 -3 -11 27 6 36 0 26 -18 -11 -21 -4 -62 11 -62 5 0 6 5 2 12 -4 7 -3 8
4 4 8 -5 9 -13 2 -25 -6 -12 -5 -22 3 -31 9 -10 9 -11 0 -6 -7 4 -13 2 -13 -4
0 -6 -6 -8 -12 -4 -7 4 -2 -5 12 -21 14 -16 19 -25 13 -21 -8 4 -13 1 -13 -9
0 -9 4 -14 9 -11 10 6 7 -51 -3 -62 -4 -3 -5 6 -2 22 3 16 2 26 -1 22 -14 -14
-12 -47 2 -52 8 -4 15 -11 15 -16 0 -6 -8 -7 -17 -3 -13 4 -12 1 5 -15 24 -22
31 -40 9 -21 -10 8 -14 7 -14 -4 0 -8 3 -15 6 -15 4 0 12 -10 20 -22 13 -22
13 -22 -5 -6 -19 16 -20 16 -20 -2 0 -10 4 -17 7 -14 4 2 10 0 14 -6 3 -5 1
-10 -6 -10 -8 0 -9 -3 0 -13 6 -8 9 -16 6 -18 -10 -10 -15 -69 -5 -69 5 0 10
-5 10 -11 0 -5 -6 -7 -12 -3 -7 4 -3 -4 10 -18 12 -13 22 -28 22 -34 0 -5 -5
-1 -11 9 -5 9 -18 17 -27 17 -16 -1 -16 -1 1 -11 9 -6 15 -14 12 -20 -4 -5 -2
-9 3 -9 5 0 9 -7 9 -15 0 -13 -4 -12 -20 2 -19 18 -19 17 -6 -4 8 -13 21 -23
29 -23 13 0 13 -1 0 -10 -13 -9 -7 -14 13 -11 12 2 8 -6 -10 -20 -14 -12 -16
-12 -8 0 5 10 4 12 -3 7 -7 -4 -12 0 -13 11 0 11 -3 13 -6 5 -3 -7 1 -20 8
-28 10 -13 10 -17 -2 -25 -12 -7 -12 -9 1 -10 8 -1 22 -1 30 0 10 0 11 -1 2
-5 -7 -3 -17 -15 -23 -26 -7 -13 -7 -18 -1 -14 6 3 13 2 17 -4 3 -5 1 -10 -6
-10 -7 0 -5 -9 6 -26 16 -24 16 -26 -2 -41 -10 -8 -13 -12 -8 -10 6 3 16 -1
23 -9 11 -12 10 -14 -5 -15 -11 0 -13 -3 -5 -6 6 -2 10 -9 6 -14 -10 -17 -13
-50 -3 -44 5 4 7 10 5 14 -3 4 1 8 8 8 7 0 13 -6 13 -13 0 -7 -4 -11 -9 -8 -4
3 -8 -5 -8 -17 0 -19 2 -20 18 -8 15 13 16 12 3 -3 -7 -10 -17 -16 -21 -13
-16 10 -20 -13 -5 -25 17 -14 21 -35 5 -25 -6 4 -7 -1 -3 -11 5 -13 3 -15 -7
-9 -8 5 -11 4 -6 -3 4 -6 14 -9 24 -6 11 4 8 -2 -8 -15 -20 -17 -21 -20 -5
-14 20 7 20 7 2 -22 l-18 -30 20 24 c15 17 21 19 21 8 0 -8 6 -18 13 -20 10
-4 10 -6 0 -6 -7 -1 -13 -10 -13 -22 0 -11 4 -18 8 -15 4 2 8 -4 8 -15 0 -19
-1 -19 -17 2 -9 12 -22 19 -30 16 -10 -4 -9 -6 3 -6 19 -1 34 -41 25 -66 -4
-8 -1 -17 5 -21 7 -4 8 -3 4 4 -5 8 -1 10 10 5 10 -4 13 -8 7 -10 -7 -3 -10
-10 -7 -18 3 -7 1 -16 -5 -20 -6 -3 -11 -11 -11 -16 0 -6 4 -8 8 -5 4 2 14 -5
21 -17 11 -18 11 -20 0 -10 -15 15 -33 17 -25 4 4 -5 3 -11 -1 -14 -5 -2 -2
-2 5 -1 6 2 12 -5 12 -16 0 -11 6 -20 13 -20 8 0 9 -2 1 -8 -6 -4 -10 -22 -9
-41 2 -22 0 -29 -6 -20 -6 10 -8 8 -6 -8 0 -12 5 -19 10 -16 5 3 7 0 5 -8 -3
-8 -11 -13 -17 -11 -7 1 -10 -2 -6 -7 3 -6 13 -7 23 -4 14 6 15 4 4 -9 -13
-16 -6 -52 8 -43 5 3 12 1 15 -5 4 -6 1 -9 -6 -8 -6 2 -14 -3 -16 -10 -3 -7
-1 -11 4 -10 4 2 9 -1 11 -7 1 -5 -2 -10 -8 -10 -5 0 -10 -4 -9 -10 0 -5 -8
-13 -18 -17 -16 -7 -16 -8 2 -5 11 2 19 8 18 14 -1 7 6 9 20 5 18 -5 19 -7 5
-10 -10 -2 -18 -12 -18 -22 0 -10 -3 -20 -7 -23 -5 -2 -3 -3 3 -1 6 1 17 -2
25 -7 11 -7 11 -9 -3 -9 -9 0 -20 -4 -23 -10 -4 -6 1 -7 12 -3 10 3 15 3 11
-2 -4 -4 0 -21 8 -36 8 -16 11 -29 7 -28 -23 4 -29 -4 -28 -33 1 -20 7 -33 15
-33 7 0 15 -7 17 -15 3 -11 2 -11 -4 -3 -6 8 -14 9 -23 3 -8 -6 -10 -10 -4
-10 7 0 15 -7 18 -16 5 -13 4 -14 -7 -6 -10 9 -14 8 -14 -3 0 -7 3 -14 6 -13
3 0 13 0 21 -2 11 -1 9 -4 -5 -10 -17 -7 -17 -9 -2 -9 11 -1 17 -9 17 -27 0
-14 -4 -23 -8 -20 -5 3 -9 -2 -9 -10 0 -9 6 -13 14 -10 8 3 11 1 8 -4 -3 -6
-1 -10 5 -10 6 0 8 -5 4 -11 -4 -8 -9 -7 -15 2 -6 10 -8 6 -5 -11 3 -14 5 -28
5 -32 1 -4 9 -5 19 -2 16 5 16 5 0 -6 -10 -6 -18 -16 -18 -22 0 -6 7 -5 17 3
14 12 15 12 9 0 -5 -8 -3 -17 5 -23 10 -7 7 -7 -8 -3 -14 4 -23 2 -23 -4 0 -6
6 -11 13 -11 9 0 13 -13 13 -39 0 -33 -2 -37 -12 -23 -12 16 -13 16 -10 1 1
-10 8 -25 16 -35 14 -18 13 -17 -15 0 -30 19 -30 19 -15 0 8 -10 22 -25 30
-32 8 -8 10 -11 3 -8 -7 4 -11 -1 -10 -14 1 -11 6 -20 12 -20 5 0 2 -5 -7 -11
-10 -5 -18 -15 -18 -21 0 -7 6 -6 15 2 13 11 14 10 9 -4 -3 -9 -10 -16 -15
-16 -5 0 -9 -5 -9 -11 0 -6 7 -8 18 -4 14 5 15 4 5 -6 -18 -18 -16 -34 2 -19
13 11 14 10 9 -4 -3 -9 -13 -16 -22 -16 -13 0 -11 -4 6 -16 20 -14 22 -42 2
-29 -4 3 -7 -3 -5 -12 1 -10 -2 -23 -6 -29 -6 -7 -3 -17 8 -25 11 -9 14 -10 9
-1 -4 6 -5 12 -2 12 3 0 10 -9 16 -19 10 -20 -2 -24 -27 -8 -7 4 -10 1 -9 -10
2 -10 11 -18 22 -18 10 0 19 -7 19 -15 0 -8 4 -21 9 -28 7 -11 4 -12 -11 -4
-15 8 -20 8 -20 -2 0 -9 11 -13 28 -12 15 1 27 0 27 -3 -3 -16 26 -60 36 -54
6 4 5 -1 -3 -10 -12 -16 -9 -21 12 -18 4 1 3 -7 -2 -17 -7 -13 -5 -26 8 -46
15 -23 19 -25 25 -11 4 10 2 14 -6 9 -7 -5 -8 -3 -3 6 5 9 4 11 -3 6 -8 -5
-10 -1 -5 10 5 13 3 15 -8 9 -12 -8 -12 -6 0 8 7 9 19 17 25 17 8 0 7 -3 -1
-8 -12 -7 -3 -35 11 -33 23 3 27 -1 11 -12 -10 -8 -15 -19 -11 -25 3 -5 1 -12
-6 -14 -9 -3 -9 -6 0 -12 7 -4 12 -2 12 3 0 6 7 11 15 11 8 0 15 -5 15 -11 0
-5 -4 -8 -8 -5 -5 3 -9 -1 -9 -9 0 -8 3 -13 5 -10 3 3 14 -3 25 -12 10 -10 21
-17 23 -15 2 1 10 2 17 2 8 0 7 -4 -3 -10 -8 -5 -10 -10 -4 -10 5 0 16 6 23
13 11 9 13 9 7 0 -4 -7 -2 -13 4 -13 6 0 8 -5 4 -12 -5 -7 -3 -8 7 -2 20 12
40 14 33 3 -3 -5 -10 -6 -16 -3 -7 4 -8 2 -4 -4 4 -6 14 -8 23 -5 12 5 14 3 8
-7 -5 -9 -4 -11 4 -6 6 4 9 11 6 16 -3 5 -1 12 5 15 6 4 10 3 9 -2 -4 -25 1
-35 14 -24 11 8 19 5 36 -13 14 -15 29 -22 39 -19 11 5 13 3 7 -7 -5 -9 -4
-11 3 -6 6 4 22 1 34 -5 13 -7 32 -13 42 -14 18 -2 18 -1 1 12 -11 7 -14 13
-8 13 7 0 18 -6 25 -13 14 -14 75 -17 96 -4 7 5 12 3 12 -5 0 -9 3 -9 10 2 9
13 10 13 11 0 0 -10 3 -8 9 5 7 17 9 17 9 3 1 -10 6 -18 12 -18 5 0 8 4 5 8
-3 5 1 9 9 9 8 0 12 -4 10 -8 -7 -10 22 -5 32 6 4 4 2 5 -6 0 -10 -5 -12 -4
-7 4 11 16 28 2 22 -18 -5 -13 -4 -13 8 2 11 14 15 15 20 5 3 -7 4 -2 2 12
l-5 25 17 -23 c14 -18 20 -20 30 -10 9 9 12 9 12 -2 0 -13 2 -13 10 0 9 13 10
13 10 0 0 -13 1 -13 10 0 9 13 10 13 10 0 0 -13 1 -13 10 0 5 8 10 10 10 4 0
-6 7 -11 15 -11 13 0 12 4 -2 20 -18 19 -17 19 5 6 12 -8 22 -17 22 -21 0 -5
5 -8 11 -8 5 0 7 5 3 12 -5 7 -3 8 7 2 8 -5 40 -9 72 -9 49 0 55 2 40 12 -9 7
-12 13 -6 13 7 0 18 -7 27 -15 18 -18 30 -20 20 -2 -6 9 -5 9 7 0 23 -19 28
-19 44 2 12 16 14 17 9 2 -5 -13 -2 -16 10 -11 9 3 13 11 9 17 -4 6 -1 7 6 3
7 -5 10 -15 6 -23 -4 -12 -2 -13 8 -5 7 6 32 10 55 8 24 -2 43 2 46 8 2 6 5 2
6 -9 1 -19 2 -19 10 2 5 13 17 21 29 20 11 0 17 -5 14 -11 -4 -5 1 -7 11 -3
10 4 20 7 22 7 3 0 2 5 -2 12 -5 8 -2 9 11 5 11 -5 23 -1 32 10 13 17 14 17 9
1 -3 -10 0 -20 6 -24 7 -5 8 -2 3 6 -6 10 -4 12 9 7 14 -6 15 -3 6 13 -13 24
-7 26 14 4 9 -8 16 -11 16 -5 0 6 5 11 11 11 5 0 7 -6 3 -12 -5 -8 -1 -8 10 1
15 13 19 13 28 0 8 -12 9 -12 5 1 -2 8 -12 14 -22 13 -11 -1 -14 2 -7 9 7 7
16 6 29 -1 16 -8 25 -6 42 10 13 13 21 15 21 7 0 -10 2 -10 9 1 7 11 9 11 14
0 3 -8 6 -4 6 9 1 12 6 22 12 22 5 0 7 -4 4 -10 -3 -6 1 -7 9 -4 9 3 14 10 11
14 -6 10 24 22 37 14 6 -4 8 1 4 14 -4 11 -2 23 3 27 7 3 8 0 5 -9 -4 -9 -1
-16 6 -16 7 0 10 -7 6 -15 -8 -22 2 -18 15 6 8 15 8 19 0 15 -6 -4 -11 -2 -11
3 0 6 5 11 11 11 5 0 7 4 4 10 -3 6 1 7 9 4 9 -3 13 -11 9 -17 -3 -6 -1 -7 5
-3 6 3 9 15 7 26 -2 11 1 23 7 26 7 4 8 2 4 -4 -4 -7 -1 -12 9 -12 9 0 14 4
11 9 -3 5 4 11 15 14 13 4 18 10 13 18 -4 7 -3 10 4 6 15 -10 41 3 36 18 -6
15 44 57 59 48 6 -4 7 -1 3 6 -5 7 -15 10 -25 6 -12 -4 -13 -3 -5 5 6 6 20 12
32 13 11 0 19 4 16 8 -2 4 -13 6 -23 4 -10 -2 -18 3 -18 11 0 9 4 11 12 4 7
-6 17 -3 28 10 17 21 9 28 -10 9 -8 -8 -13 -7 -18 2 -5 8 -4 10 3 5 7 -4 12
-3 12 2 0 6 -7 13 -16 16 -13 5 -14 9 -4 21 7 8 16 12 21 9 5 -3 9 2 9 11 0 9
-4 14 -8 11 -4 -2 -14 0 -22 6 -13 8 -12 9 2 5 9 -3 22 2 30 10 11 14 11 16
-4 10 -13 -4 -16 -1 -13 15 3 11 7 23 11 27 4 3 4 -2 1 -12 -5 -13 -3 -17 5
-14 7 2 12 9 11 15 -2 7 4 9 14 5 11 -4 13 -8 5 -11 -7 -2 -10 -7 -7 -12 3 -5
-2 -16 -11 -24 -8 -9 -10 -16 -4 -16 7 0 8 -6 0 -19 -7 -14 -7 -19 3 -17 19 3
54 25 40 26 -7 0 -13 5 -13 11 0 5 5 7 11 3 8 -5 8 -1 0 14 -14 27 -14 35 2
26 9 -6 9 -5 0 8 -7 8 -9 18 -5 22 11 12 9 30 -5 44 -16 16 -17 29 -3 37 5 3
7 0 4 -8 -3 -8 -1 -18 5 -22 7 -4 8 1 4 12 -6 16 -5 17 12 3 17 -14 17 -14 4
7 -8 13 -17 23 -21 23 -5 0 -8 5 -8 11 0 5 5 7 10 4 9 -6 14 11 13 43 -1 8 5
11 14 8 8 -3 11 -1 8 5 -4 5 -16 7 -28 4 -16 -5 -18 -4 -8 3 8 6 10 15 6 22
-6 9 -4 11 5 5 9 -5 10 -2 6 12 -4 12 -1 25 7 32 10 8 12 22 7 51 -6 33 -5 40
9 40 11 0 9 4 -7 16 -17 11 -20 19 -13 28 6 7 7 17 3 21 -4 5 -1 5 6 1 6 -4
12 -2 12 4 0 6 4 9 8 6 4 -2 8 4 8 15 0 19 -1 19 -13 3 -11 -15 -13 -15 -13
-2 0 8 10 23 23 32 22 15 21 15 -8 6 l-30 -10 25 20 c14 11 18 18 10 15 -12
-4 -15 4 -16 42 0 26 2 41 4 35 6 -20 19 -13 17 9 -1 11 -8 25 -16 31 -10 7
-6 8 16 4 20 -5 25 -3 16 3 -15 10 -5 35 10 25 6 -3 5 4 -3 15 -11 18 -11 23
2 31 8 5 10 10 4 10 -5 0 -14 -4 -20 -9 -5 -6 -9 12 -9 49 -1 41 3 61 13 65 8
3 10 0 6 -7 -4 -7 -3 -8 5 -4 9 6 9 11 1 21 -16 20 -21 68 -6 56 8 -7 12 -4
13 10 1 11 -2 17 -7 14 -5 -3 -11 -1 -14 4 -4 5 -1 13 5 17 8 5 9 3 4 -6 -5
-9 -4 -11 4 -6 9 6 9 11 -1 24 -11 13 -11 15 3 10 9 -4 16 -1 16 8 0 7 -4 11
-8 9 -11 -8 -5 21 9 38 10 12 10 17 1 23 -7 4 -9 3 -6 -3 3 -5 0 -10 -8 -10
-11 0 -12 4 -4 14 9 10 8 18 -2 31 -7 9 -1 6 15 -8 l29 -25 -18 28 c-10 15
-15 30 -11 34 3 3 0 13 -7 22 -9 12 -4 11 18 -3 20 -13 26 -15 18 -4 -7 8 -10
18 -6 22 11 11 13 45 3 51 -6 3 -7 -1 -4 -9 3 -9 1 -16 -6 -16 -6 0 -8 5 -5
10 3 6 0 10 -7 10 -7 1 -2 8 12 16 14 8 17 13 8 10 -21 -6 -24 9 -4 17 10 4
13 15 10 32 -3 19 -1 24 7 19 8 -4 9 -3 5 5 -4 6 -11 9 -15 7 -4 -3 -8 2 -8
10 0 8 6 13 12 10 7 -2 11 7 11 24 0 16 -3 27 -7 24 -4 -2 -11 1 -15 7 -4 7
-3 9 3 6 11 -7 28 38 24 62 -2 12 0 12 11 3 12 -9 15 -9 15 3 0 8 -3 12 -7 10
-3 -2 -12 0 -20 6 -13 7 -12 9 2 9 9 0 20 5 24 12 4 6 3 8 -4 4 -17 -10 -20
18 -3 32 14 11 13 12 -9 6 l-25 -7 25 23 c17 14 19 20 8 16 -10 -3 -20 0 -24
6 -4 6 -3 8 3 5 14 -9 33 14 29 35 -1 9 -8 24 -16 34 -14 18 -14 18 3 5 17
-13 18 -12 12 12 -5 18 -3 27 5 27 6 0 8 5 5 11 -4 6 -13 8 -21 5 -8 -3 -14
-3 -14 0 0 2 11 9 25 14 22 8 24 13 15 30 -6 11 -16 20 -23 20 -7 0 -4 5 6 11
9 6 15 14 12 19 -3 5 -1 11 4 14 11 7 9 -13 -2 -31 -5 -8 -4 -13 2 -13 10 0
15 14 12 33 0 4 5 7 11 7 9 0 8 4 -2 10 -12 8 -13 12 -2 19 11 6 10 10 -4 15
-10 4 -15 4 -11 0 8 -9 -11 -34 -27 -34 -6 0 -4 5 4 10 8 5 15 15 15 22 0 7 6
13 14 13 8 0 15 8 17 18 1 9 -4 17 -12 17 -17 0 -18 16 -2 26 7 5 8 2 3 -7 -7
-12 -5 -12 6 -1 9 8 10 15 4 20 -15 11 -42 47 -29 39 7 -4 15 0 18 9 5 14 9
14 24 3 15 -13 16 -12 4 3 -9 12 -10 22 -4 35 7 13 6 24 -5 38 -16 20 -16 20
-9 0 6 -16 5 -17 -5 -8 -9 10 -10 15 0 27 9 10 9 16 1 21 -8 5 -8 11 1 21 14
17 -6 48 -24 37 -6 -4 -7 -1 -2 6 5 9 10 10 18 2 15 -15 30 -14 21 1 -4 7 -3
8 4 4 6 -4 9 -13 5 -21 -3 -8 0 -15 5 -15 16 0 24 18 11 25 -6 4 -8 18 -5 30
4 14 1 25 -7 28 -9 4 -8 6 2 6 10 1 10 7 -4 27 -9 15 -13 24 -8 21 5 -3 14 3
21 13 9 14 9 21 0 26 -6 4 -8 3 -4 -4 7 -12 -20 -10 -31 3 -4 4 -3 5 4 1 7 -4
18 2 24 13 7 10 19 17 28 14 14 -4 14 -4 1 6 -13 9 -13 11 0 11 12 0 13 2 1 9
-11 7 -10 10 4 18 16 9 16 10 0 17 -16 6 -16 8 0 32 9 15 12 23 6 20 -15 -10
-14 7 1 22 7 7 9 12 5 12 -3 0 -16 -10 -28 -22 -23 -24 -16 -5 8 24 13 14 12
18 -4 27 -15 9 -13 10 12 6 17 -3 24 -2 18 1 -10 4 -10 11 -2 26 7 13 7 18 1
14 -6 -3 -13 -2 -17 4 -3 5 1 10 9 10 8 0 18 4 21 10 3 5 0 7 -8 4 -8 -3 -18
0 -23 7 -4 7 -3 10 3 6 5 -3 10 -1 11 6 0 7 3 23 6 36 3 13 -1 29 -9 38 -8 8
-15 22 -14 31 0 15 1 14 8 -1 7 -18 8 -18 21 -1 8 10 10 15 4 11 -7 -4 -15 0
-18 9 -3 8 -2 13 3 10 5 -3 11 3 14 14 3 11 0 23 -5 27 -6 3 -8 1 -4 -5 3 -6
2 -13 -3 -17 -6 -3 -8 3 -6 15 2 11 -1 20 -7 20 -6 0 -2 8 10 18 19 17 19 19
4 30 -15 11 -14 12 8 7 15 -4 20 -3 13 2 -7 5 -12 20 -12 33 -1 14 -1 37 -1
53 0 15 -3 26 -7 25 -5 -2 -8 2 -8 7 0 6 3 9 7 8 3 -1 5 12 4 30 -1 18 3 38 9
46 8 12 7 13 -4 6 -11 -6 -13 -4 -8 9 6 14 3 16 -15 10 -21 -6 -22 -5 -8 11 9
11 10 16 3 11 -8 -4 -13 -2 -13 5 0 8 -5 7 -17 -2 -11 -10 -14 -10 -9 -1 4 7
1 12 -9 12 -10 0 -13 -5 -9 -12 4 -7 3 -8 -5 -4 -9 6 -9 11 1 24 11 13 11 14
-7 5 -15 -8 -25 -8 -37 1 -10 7 -15 16 -11 19 3 4 1 7 -5 7 -7 0 -12 -6 -12
-12 0 -9 -3 -9 -8 -2 -4 6 -15 13 -25 17 -10 4 -16 11 -13 16 7 11 -13 9 -32
-2 -7 -5 -15 -2 -19 9 -6 16 -7 16 -14 -2 -7 -17 -8 -17 -8 -1 -1 20 -12 22
-30 5 -7 -7 -12 -8 -11 -3 5 22 -1 29 -10 15 -8 -13 -10 -12 -10 3 0 9 5 17
11 17 5 0 7 4 4 10 -3 6 -16 0 -28 -13 -12 -12 -19 -18 -14 -13 4 6 7 17 7 25
0 11 -3 10 -14 -4 -12 -17 -14 -17 -23 -1 -11 20 -60 29 -70 13 -4 -6 -1 -7 8
-2 12 7 12 5 1 -6 -11 -12 -14 -12 -23 1 -8 11 -12 12 -16 3 -6 -17 -24 -17
-21 -1 2 7 -3 12 -9 13 -7 0 -13 3 -13 8 0 4 0 10 0 14 0 3 8 -1 18 -10 13
-12 21 -13 32 -6 13 9 12 10 -2 6 -21 -7 -41 15 -28 31 7 8 7 9 -1 3 -13 -10
-39 -4 -39 10 0 4 7 5 17 2 10 -4 14 -2 9 5 -3 6 -2 13 4 17 17 11 2 22 -26
19 -14 -1 -23 1 -19 4 7 7 12 8 40 11 16 1 16 21 0 33 -6 4 -2 8 8 8 9 0 17 4
17 10 0 5 -8 7 -17 4 -14 -5 -15 -4 -4 4 8 6 23 9 33 7 10 -2 16 0 13 6 -4 5
-2 9 4 9 5 0 12 -6 14 -12 3 -7 6 -3 6 10 1 12 6 22 12 22 5 0 8 -4 4 -9 -3
-5 0 -13 6 -17 7 -4 9 -3 6 3 -4 6 0 16 7 22 11 9 16 9 22 0 4 -8 3 -9 -4 -5
-7 4 -12 2 -12 -4 0 -7 6 -10 13 -7 6 2 11 11 10 19 -2 9 6 14 21 14 14 0 23
-3 20 -7 -2 -4 0 -11 6 -14 6 -4 10 -3 9 2 -3 19 2 33 12 33 5 0 8 -4 4 -9 -3
-5 0 -13 6 -17 7 -4 9 -3 5 4 -3 6 3 13 14 17 11 4 18 10 16 14 -3 4 1 8 9 8
8 0 11 -5 8 -10 -3 -6 -1 -7 6 -3 6 4 18 2 26 -4 8 -7 15 -9 15 -5 0 4 -8 14
-17 21 -17 13 -17 14 1 7 13 -4 17 -3 12 5 -5 8 -2 10 8 6 9 -3 13 -11 9 -17
-4 -7 5 -2 21 10 15 12 33 20 40 17 8 -3 23 7 35 22 16 20 18 30 10 40 -9 11
-8 14 3 14 7 0 14 9 14 21 0 19 -1 20 -14 2 -14 -17 -14 -17 -8 0 3 10 6 23 6
28 0 6 5 7 12 3 7 -4 8 -3 4 5 -5 8 -12 9 -19 2 -8 -6 -17 -4 -27 7 -13 14
-12 15 3 9 9 -3 17 -2 17 3 0 6 -11 10 -25 10 -14 0 -23 5 -21 13 1 6 1 9 -1
4 -3 -4 -10 -4 -16 0 -6 4 -8 0 -5 -9 4 -8 1 -15 -7 -15 -8 0 -11 7 -7 16 5
14 3 14 -10 3 -13 -10 -17 -10 -21 0 -2 7 -8 10 -12 6 -4 -4 -2 -15 6 -25 12
-15 11 -15 -13 1 -16 10 -28 15 -28 12 0 -4 -10 -2 -21 5 -17 9 -20 8 -14 -2
6 -9 3 -11 -8 -6 -11 4 -14 2 -10 -9 3 -9 9 -11 17 -6 18 15 45 10 39 -6 -5
-11 -7 -11 -14 0 -6 10 -11 10 -20 1 -10 -10 -17 -9 -31 4 -10 9 -18 13 -18 8
0 -4 -8 -1 -17 6 -15 11 -16 11 -5 -1 16 -19 15 -31 -3 -24 -8 4 -15 1 -15 -6
0 -7 -10 -2 -22 11 -14 16 -19 18 -15 7 3 -10 2 -20 -3 -23 -6 -4 -10 -1 -10
6 0 8 -5 7 -17 -2 -15 -12 -16 -12 -10 4 3 9 2 17 -3 17 -6 0 -10 -7 -10 -16
0 -8 -5 -12 -10 -9 -6 4 -7 11 -4 17 4 7 2 8 -5 4 -6 -4 -9 -11 -6 -16 3 -5 1
-11 -4 -14 -5 -4 -13 -1 -17 5 -5 8 -3 9 7 4 8 -5 10 -4 6 0 -14 16 -36 14
-30 -2 5 -13 3 -13 -15 -4 -20 10 -33 -1 -14 -12 4 -2 2 -3 -4 -1 -7 1 -21 -4
-32 -12 -12 -8 -23 -10 -26 -5 -4 5 0 11 6 14 7 2 11 7 8 10 -3 3 -20 -8 -38
-23 -24 -20 -30 -30 -21 -35 7 -5 10 -4 6 1 -3 6 3 15 13 22 18 11 18 10 2
-17 -13 -24 -18 -26 -30 -15 -7 8 -18 14 -23 14 -6 0 -3 -7 5 -16 21 -21 20
-30 -1 -13 -14 12 -16 12 -11 -1 2 -8 -3 -21 -12 -30 -9 -8 -11 -12 -4 -7 7 4
14 1 18 -8 3 -9 2 -13 -3 -10 -5 3 -12 1 -16 -5 -3 -5 -2 -10 3 -10 6 0 13 -7
16 -16 6 -15 3 -14 -21 1 -18 12 -24 13 -17 4 14 -17 16 -77 3 -84 -5 -4 -9
-11 -9 -18 0 -6 7 -1 16 11 8 12 20 22 25 22 6 0 3 -7 -5 -16 -14 -13 -22 -58
-17 -88 1 -5 -6 -17 -15 -27 -12 -14 -21 -16 -35 -9 -13 8 -21 6 -29 -7 -11
-17 -11 -17 -6 0 7 22 -2 22 -28 0 -20 -17 -20 -17 -7 0 17 22 4 22 -23 0 -12
-10 -15 -11 -8 -3 15 18 16 38 1 23 -6 -6 -18 -9 -27 -6 -10 4 -13 2 -8 -5 3
-6 2 -13 -3 -16 -5 -4 -8 5 -7 18 3 21 1 23 -15 13 -10 -6 -15 -16 -12 -22 3
-5 0 -4 -8 4 -11 10 -11 15 -1 18 6 3 12 9 12 15 0 7 -5 6 -14 -1 -10 -9 -20
-9 -34 -2 -14 7 -19 7 -19 -4 0 -7 6 -11 14 -8 7 3 13 0 13 -5 0 -13 -49 -5
-69 11 -8 7 -16 11 -18 10 -2 -2 -19 -10 -39 -18 -28 -12 -34 -12 -25 -2 6 8
8 16 5 20 -8 8 -35 -3 -29 -13 3 -4 -13 -6 -36 -4 -22 2 -38 0 -35 -4 2 -4 -4
-9 -15 -9 -16 -2 -18 1 -9 12 8 10 8 15 -1 21 -8 4 -9 3 -5 -4 10 -16 -16 -15
-34 1 -8 6 -6 1 5 -12 l20 -24 -25 13 c-23 12 -24 12 -11 -4 12 -14 12 -16 -3
-10 -9 3 -16 14 -16 23 0 13 -2 14 -9 1 -6 -8 -8 -17 -6 -20 2 -3 -5 -6 -16
-6 -19 0 -20 1 -2 14 17 14 17 14 -4 9 -13 -3 -26 -1 -29 4 -3 5 -10 9 -17 9
-6 0 -2 -6 9 -14 16 -12 17 -17 6 -28 -11 -11 -13 -11 -10 1 2 7 -3 16 -10 18
-8 3 -10 -2 -6 -14 3 -10 -2 -7 -10 7 -11 19 -15 21 -16 8 0 -9 -5 -20 -12
-24 -6 -4 -8 -3 -5 2 3 6 -3 15 -13 22 -16 9 -18 9 -14 -2 7 -18 -12 -30 -22
-15 -5 8 -3 9 7 4 12 -8 12 -6 0 8 -15 19 -26 23 -15 5 5 -8 2 -9 -9 -5 -10 3
-17 2 -17 -3 0 -6 5 -10 12 -10 6 0 9 -2 6 -5 -11 -12 -37 7 -31 23 3 11 -1 9
-11 -5 -9 -12 -25 -21 -36 -20 -23 1 -25 8 -7 27 10 12 9 12 -5 1 -10 -7 -18
-21 -19 -30 0 -11 -3 -9 -9 7 -5 12 -12 22 -15 22 -4 0 -4 -4 -1 -8 2 -4 1
-14 -5 -22 -7 -12 -9 -12 -9 3 0 10 -3 16 -7 14 -5 -3 -21 1 -38 8 -16 7 -25
14 -18 14 6 1 10 10 8 21 -2 11 0 18 5 15 5 -3 12 0 16 6 4 8 3 9 -4 5 -7 -4
-12 -2 -12 4 0 6 -4 8 -10 5 -6 -4 -7 1 -3 11 4 11 3 15 -5 10 -15 -9 -26 14
-13 27 9 9 11 8 8 -3 -2 -8 -2 -11 1 -6 3 5 13 -2 24 -15 19 -23 19 -23 8 -1
-6 12 -19 28 -30 34 -15 9 -16 16 -8 37 5 14 6 22 2 18 -11 -10 -34 13 -34 34
0 10 -9 21 -20 24 -27 9 -25 24 3 19 22 -5 22 -5 -1 6 -13 5 -21 14 -18 18 3
5 0 9 -7 10 -30 2 -48 9 -48 18 -1 5 -5 16 -10 25 -4 9 -4 21 1 27 7 9 7 9 -2
2 -7 -5 -19 -10 -27 -10 -14 0 -14 1 -1 10 13 8 12 10 -2 10 -10 0 -18 5 -18
10 0 6 -5 10 -11 10 -5 0 -7 -5 -3 -12 4 -7 3 -8 -5 -4 -9 6 -9 11 -1 21 8 9
6 14 -5 19 -9 3 -14 9 -11 14 2 4 -4 8 -14 8 -10 0 -16 -5 -13 -10 4 -5 1 -6
-6 -2 -7 5 -10 14 -7 21 8 22 -5 25 -32 7 -15 -9 -23 -11 -19 -5 5 9 -4 18
-27 30 -19 9 -37 23 -39 32 -4 13 -5 12 -6 -2 0 -10 -6 -15 -11 -12 -6 4 -8
10 -6 14 3 4 -8 5 -25 3 -17 -3 -29 0 -29 7 0 6 -7 11 -15 11 -8 0 -15 6 -15
13 0 9 -3 8 -9 -2 -5 -7 -11 -9 -14 -4 -7 12 -64 10 -74 -2 -5 -4 -2 -5 4 -1
9 5 11 2 6 -10 -5 -14 -7 -15 -15 -1 -5 10 -15 14 -25 10 -11 -4 -14 -3 -9 5
4 7 3 12 -3 12 -5 0 -12 -6 -14 -12 -4 -9 -6 -9 -6 1 -1 11 -5 10 -16 -5 -10
-13 -13 -14 -10 -3 4 10 0 16 -9 16 -8 0 -13 -4 -10 -8 9 -15 -22 -16 -39 -1
-16 15 -17 14 -11 -1 5 -13 2 -16 -10 -11 -9 3 -13 10 -10 15 3 5 3 9 0 9 -3
0 -7 -2 -7 -5z m259 -14 c2 -1 0 -6 -3 -11 -5 -8 -11 -8 -19 -1 -7 6 -17 7
-21 3 -5 -4 -5 -2 -2 5 6 9 18 10 45 4z m42 -17 c0 -2 -7 -4 -15 -4 -8 0 -15
4 -15 10 0 5 7 7 15 4 8 -4 15 -8 15 -10z m245 -104 c3 -5 1 -10 -4 -10 -6 0
-11 5 -11 10 0 6 2 10 4 10 3 0 8 -4 11 -10z m1875 -129 c-14 -27 -27 -34 -36
-19 -4 7 -4 10 1 6 5 -5 14 1 22 12 18 26 27 26 13 1z m-1735 -10 c3 -5 2 -12
-3 -15 -5 -3 -9 1 -9 9 0 17 3 19 12 6z m1122 -116 c0 -8 -4 -12 -9 -9 -5 3
-6 10 -3 15 9 13 12 11 12 -6z m188 -115 c-3 -5 -12 -10 -18 -10 -7 0 -6 4 3
10 19 12 23 12 15 0z m-541 -42 c-4 -5 -9 -7 -12 -4 -3 3 -12 0 -21 -7 -14
-10 -14 -10 -4 4 13 16 46 23 37 7z m26 -12 c0 -2 -7 -7 -16 -10 -8 -3 -12 -2
-9 4 6 10 25 14 25 6z m-2005 -46 c3 -6 -1 -7 -9 -4 -18 7 -21 14 -7 14 6 0
13 -4 16 -10z m2644 -13 c0 -9 -2 -8 -6 1 -2 6 -10 9 -15 6 -7 -4 -8 -2 -4 5
9 13 26 5 25 -12z m196 -47 c3 -5 1 -10 -4 -10 -6 0 -11 5 -11 10 0 6 2 10 4
10 3 0 8 -4 11 -10z m-2850 -30 c-3 -5 -12 -10 -18 -10 -7 0 -6 4 3 10 19 12
23 12 15 0z m3049 -124 c-3 -9 -10 -13 -15 -10 -5 3 -3 11 4 19 15 16 19 13
11 -9z m3 -363 c0 -9 -4 -10 -14 -2 -7 6 -13 12 -13 14 0 1 6 2 13 2 8 0 14
-6 14 -14z m-12 -31 c-3 -3 -11 0 -18 7 -9 10 -8 11 6 5 10 -3 15 -9 12 -12z
m5 -72 c0 -5 -4 -10 -10 -10 -5 0 -10 5 -10 10 0 6 5 10 10 10 6 0 10 -4 10
-10z m-2489 -53 c-10 -9 -11 -8 -5 6 3 10 9 15 12 12 3 -3 0 -11 -7 -18z m22
-50 c3 -8 -1 -14 -8 -14 -7 0 -11 6 -8 14 3 7 6 13 8 13 2 0 5 -6 8 -13z
m2451 -12 c-7 -16 -24 -21 -24 -6 0 8 7 13 27 20 1 1 0 -6 -3 -14z m1 -34 c3
-5 1 -12 -5 -16 -6 -4 -8 -11 -5 -16 4 -5 1 -9 -4 -9 -14 0 -14 17 0 26 8 4 7
9 -2 15 -10 6 -10 9 -2 9 6 0 14 -4 18 -9z m-65 -191 c0 -5 -2 -10 -4 -10 -3
0 -8 5 -11 10 -3 6 -1 10 4 10 6 0 11 -4 11 -10z m35 -10 c-3 -5 -12 -10 -18
-10 -7 0 -6 4 3 10 19 12 23 12 15 0z m-16 -172 c-16 -31 -16 -31 -23 -13 -3
9 -2 14 3 11 5 -3 11 1 15 9 3 8 8 15 11 15 3 0 0 -10 -6 -22z m-2369 -13 c0
-2 -6 -8 -13 -14 -10 -8 -14 -7 -14 2 0 8 6 14 14 14 7 0 13 -1 13 -2z m2355
-135 c3 -6 -1 -7 -9 -4 -18 7 -21 14 -7 14 6 0 13 -4 16 -10z m-2345 -84 c0
-2 -7 -7 -16 -10 -8 -3 -12 -2 -9 4 6 10 25 14 25 6z m2325 -56 c3 -6 -1 -7
-9 -4 -18 7 -21 14 -7 14 6 0 13 -4 16 -10z m-2292 -253 c3 -8 2 -20 -3 -26
-5 -9 -7 -4 -7 13 0 29 2 32 10 13z m2 -66 c-3 -6 -11 -11 -16 -11 -5 0 -4 6
3 14 14 16 24 13 13 -3z m2245 -71 c0 -5 -2 -10 -4 -10 -3 0 -8 5 -11 10 -3 6
-1 10 4 10 6 0 11 -4 11 -10z m-10 -184 c0 -3 -4 -8 -10 -11 -5 -3 -10 -1 -10
4 0 6 5 11 10 11 6 0 10 -2 10 -4z m-2196 -214 c3 -5 -1 -9 -9 -9 -8 0 -12 4
-9 9 3 4 7 8 9 8 2 0 6 -4 9 -8z m2126 -66 c0 -2 -8 -10 -17 -17 -16 -13 -17
-12 -4 4 13 16 21 21 21 13z m20 -191 c0 -1 -6 -7 -13 -13 -10 -8 -13 -6 -13
7 0 11 6 17 13 14 7 -3 13 -6 13 -8z m-2125 -5 c-3 -5 -11 -10 -16 -10 -6 0
-7 5 -4 10 3 6 11 10 16 10 6 0 7 -4 4 -10z m1976 -7 c13 -16 12 -17 -3 -4
-10 7 -18 15 -18 17 0 8 8 3 21 -13z m-1971 -17 c0 -2 -7 -7 -16 -10 -8 -3
-12 -2 -9 4 6 10 25 14 25 6z m25 -216 c-3 -5 -12 -10 -18 -10 -7 0 -6 4 3 10
19 12 23 12 15 0z m2055 -145 c0 -7 -30 -13 -34 -7 -3 4 4 9 15 9 10 1 19 0
19 -2z m-20 -116 c0 -5 -4 -7 -10 -4 -5 3 -10 1 -10 -6 0 -7 -3 -10 -6 -6 -8
7 4 27 17 27 5 0 9 -5 9 -11z m-14 -136 c-10 -11 -19 -7 -22 10 -2 15 0 16 12
6 8 -6 12 -14 10 -16z m-2006 -42 c0 -5 -8 -15 -17 -22 -16 -12 -17 -12 -6 2
7 9 10 19 6 22 -3 4 -1 7 5 7 7 0 12 -4 12 -9z m1991 -34 c-10 -9 -11 -8 -5 6
3 10 9 15 12 12 3 -3 0 -11 -7 -18z m-1957 -37 c-6 -6 -10 -3 -10 10 0 13 4
16 10 10 7 -7 7 -13 0 -20z m1966 16 c0 -3 -4 -8 -10 -11 -5 -3 -10 -1 -10 4
0 6 5 11 10 11 6 0 10 -2 10 -4z m-1960 -66 c0 -5 -2 -10 -4 -10 -3 0 -8 5
-11 10 -3 6 -1 10 4 10 6 0 11 -4 11 -10z m1865 -20 c3 -6 -1 -7 -9 -4 -18 7
-21 14 -7 14 6 0 13 -4 16 -10z m-1765 -80 c0 -5 -2 -10 -4 -10 -3 0 -8 5 -11
10 -3 6 -1 10 4 10 6 0 11 -4 11 -10z m15 -40 c3 -5 1 -10 -4 -10 -6 0 -11 5
-11 10 0 6 2 10 4 10 3 0 8 -4 11 -10z m105 -14 c0 -3 -4 -8 -10 -11 -5 -3
-10 -1 -10 4 0 6 5 11 10 11 6 0 10 -2 10 -4z m-100 -30 c0 -2 -7 -7 -16 -10
-8 -3 -12 -2 -9 4 6 10 25 14 25 6z m35 -56 c4 -6 12 -7 18 -4 7 4 8 3 4 -1
-13 -15 -35 -14 -48 1 -9 11 -8 14 4 14 9 0 19 -5 22 -10z m1378 -71 c-8 -8
-13 -7 -18 2 -5 8 -4 10 3 5 7 -4 12 -2 12 5 0 7 3 9 7 6 4 -4 2 -12 -4 -18z
m-1098 -57 c3 -7 -8 -4 -25 8 -17 12 -30 23 -30 25 0 9 50 -22 55 -33z m665
14 c0 -2 -8 -10 -17 -17 -16 -13 -17 -12 -4 4 13 16 21 21 21 13z m131 -19
c-10 -9 -11 -8 -5 6 3 10 9 15 12 12 3 -3 0 -11 -7 -18z m-297 5 c3 -5 -1 -9
-9 -9 -8 0 -12 4 -9 9 3 4 7 8 9 8 2 0 6 -4 9 -8z"/>
<path d="M1850 4686 c0 -3 13 -14 28 -25 22 -16 29 -17 29 -5 0 7 -3 12 -5 9
-3 -3 -16 2 -29 10 -13 9 -23 13 -23 11z"/>
<path d="M2377 4543 c-2 -5 -3 -18 -2 -30 1 -12 -2 -20 -6 -18 -4 3 -15 2 -24
-1 -15 -6 -14 -9 6 -21 14 -8 16 -12 6 -9 -15 5 -17 2 -12 -17 7 -22 7 -22
-10 -2 -9 11 -14 14 -10 8 4 -8 -1 -13 -12 -14 -14 0 -14 -2 5 -9 12 -5 22
-12 22 -15 0 -4 -4 -3 -10 0 -5 3 -10 -2 -10 -12 0 -15 -2 -16 -11 -3 -9 13
-10 13 -6 0 2 -8 0 -24 -5 -35 -8 -17 -7 -18 4 -4 16 19 45 21 45 2 0 -9 -4
-10 -14 -1 -11 8 -12 7 -7 -6 7 -19 16 -20 32 -4 16 16 16 -4 0 -22 -8 -9 -5
-8 7 1 21 17 45 15 45 -3 0 -7 -5 -7 -13 1 -10 8 -14 7 -14 -4 0 -8 3 -13 5
-10 3 3 11 0 18 -5 8 -8 17 -6 28 5 18 19 21 35 6 35 -5 0 -10 5 -10 11 0 8 5
8 15 -1 18 -15 20 0 3 20 -7 7 1 5 17 -5 l30 -18 -19 22 c-11 11 -16 24 -12
28 4 4 11 2 15 -6 6 -10 10 -8 16 6 14 31 12 71 -2 66 -7 -3 -24 2 -38 11 -23
15 -24 15 -19 -1 3 -10 -1 -7 -9 7 -9 14 -13 28 -10 33 2 4 1 7 -4 6 -20 -3
-34 2 -28 11 3 6 4 10 1 10 -3 0 -7 -3 -9 -7z m27 -39 c3 -8 2 -12 -4 -9 -6 3
-10 10 -10 16 0 14 7 11 14 -7z m92 -56 c4 -7 4 -10 -1 -6 -4 4 -14 3 -22 -4
-11 -8 -12 -7 -7 6 7 19 20 21 30 4z m4 -22 c0 -3 -4 -8 -10 -11 -5 -3 -10 -1
-10 4 0 6 5 11 10 11 6 0 10 -2 10 -4z"/>
<path d="M3810 4399 c0 -5 5 -7 10 -4 6 3 10 8 10 11 0 2 -4 4 -10 4 -5 0 -10
-5 -10 -11z"/>
<path d="M980 4389 c0 -5 5 -7 10 -4 6 3 10 8 10 11 0 2 -4 4 -10 4 -5 0 -10
-5 -10 -11z"/>
<path d="M3678 4363 c7 -3 16 -2 19 1 4 3 -2 6 -13 5 -11 0 -14 -3 -6 -6z"/>
<path d="M2454 4329 c-3 -6 -2 -15 3 -20 5 -5 9 -1 9 11 0 23 -2 24 -12 9z"/>
<path d="M906 4258 c3 -5 10 -6 15 -3 13 9 11 12 -6 12 -8 0 -12 -4 -9 -9z"/>
<path d="M3199 4218 c11 -15 11 -21 0 -35 -12 -17 -12 -17 6 0 19 17 19 17 0
35 -18 16 -18 16 -6 0z"/>
<path d="M2757 4207 c-3 -8 1 -14 8 -14 7 0 11 6 8 14 -3 7 -6 13 -8 13 -2 0
-5 -6 -8 -13z"/>
<path d="M2230 4206 c0 -2 7 -7 16 -10 8 -3 12 -2 9 4 -6 10 -25 14 -25 6z"/>
<path d="M3060 4200 c-8 -5 -10 -10 -5 -10 6 0 17 5 25 10 8 5 11 10 5 10 -5
0 -17 -5 -25 -10z"/>
<path d="M3154 4202 c4 -3 14 -7 22 -8 9 -1 13 0 10 4 -4 3 -14 7 -22 8 -9 1
-13 0 -10 -4z"/>
<path d="M3846 4041 c-4 -5 -2 -12 3 -15 5 -4 12 -2 15 3 4 5 2 12 -3 15 -5 4
-12 2 -15 -3z"/>
<path d="M870 3956 c0 -2 7 -7 16 -10 8 -3 12 -2 9 4 -6 10 -25 14 -25 6z"/>
<path d="M889 3877 c6 -8 9 -16 6 -19 -3 -2 2 -5 10 -5 13 0 13 3 -2 19 -19
21 -31 25 -14 5z"/>
<path d="M919 3777 c6 -8 7 -18 3 -22 -4 -5 -1 -5 6 -1 10 6 10 11 1 22 -6 8
-14 14 -16 14 -3 0 0 -6 6 -13z"/>
<path d="M948 3721 c8 -4 13 -11 13 -15 -1 -3 1 -6 4 -6 3 0 8 0 11 0 4 0 1 7
-6 15 -7 8 -18 15 -24 15 -7 0 -6 -4 2 -9z"/>
<path d="M3965 3700 c-3 -5 -2 -10 4 -10 5 0 13 5 16 10 3 6 2 10 -4 10 -5 0
-13 -4 -16 -10z"/>
<path d="M1105 3549 c-4 -6 -5 -12 -2 -15 2 -3 7 2 10 11 7 17 1 20 -8 4z"/>
<path d="M1230 3480 c0 -5 5 -10 11 -10 5 0 7 5 4 10 -3 6 -8 10 -11 10 -2 0
-4 -4 -4 -10z"/>
<path d="M4080 3410 c13 -9 13 -10 0 -10 -9 -1 -5 -6 10 -16 19 -11 20 -14 5
-10 -22 6 -39 -2 -43 -22 -2 -10 4 -12 20 -7 22 7 22 6 4 -7 -10 -8 -16 -20
-12 -26 3 -6 1 -14 -5 -18 -8 -5 -9 -3 -4 6 5 8 3 11 -4 9 -7 -3 -11 -8 -9
-11 2 -4 -6 -14 -17 -23 -20 -16 -19 -16 4 -9 21 5 22 4 10 -9 -8 -8 -19 -13
-25 -10 -7 2 -15 0 -19 -6 -4 -7 0 -8 11 -4 11 4 15 3 10 -5 -3 -6 -2 -13 3
-17 5 -3 15 3 21 12 10 16 11 16 7 -3 -3 -13 1 -21 9 -21 7 0 11 3 9 7 -2 4 2
7 9 7 7 0 13 -6 13 -14 0 -7 -5 -13 -10 -13 -6 0 -8 -2 -5 -5 3 -3 18 -1 34 5
23 9 27 9 17 -1 -7 -7 -13 -20 -13 -28 0 -11 4 -10 15 5 14 18 14 18 8 -3 -6
-26 8 -30 27 -8 7 8 16 12 21 9 5 -3 6 3 2 12 -4 11 -3 15 5 10 6 -3 14 -1 17
5 10 16 -3 23 -18 10 -11 -9 -17 -7 -28 6 -13 16 -12 17 4 4 15 -12 17 -11 17
2 0 9 5 19 12 23 7 5 8 3 3 -7 -7 -12 -6 -12 7 -1 9 7 14 21 11 32 -3 11 0 20
6 20 6 0 11 13 11 28 0 19 -5 29 -15 29 -10 0 -12 -4 -5 -12 7 -8 5 -12 -5
-12 -8 0 -12 4 -9 8 7 12 -28 41 -43 34 -11 -4 -13 -1 -9 11 4 12 2 15 -9 10
-12 -4 -14 0 -11 20 4 21 2 23 -9 14 -9 -7 -15 -8 -20 0 -3 5 -12 10 -18 10
-7 0 -6 -4 3 -10z m94 -68 c3 -5 -1 -9 -9 -9 -8 0 -12 4 -9 9 3 4 7 8 9 8 2 0
6 -4 9 -8z m-10 -161 c3 -5 -2 -15 -12 -22 -15 -12 -16 -12 -5 2 7 9 10 19 6
22 -3 4 -4 7 0 7 3 0 8 -4 11 -9z"/>
<path d="M1437 3295 c-4 -8 -3 -16 1 -19 4 -3 9 4 9 15 2 23 -3 25 -10 4z"/>
<path d="M3910 3156 c0 -2 8 -10 18 -17 15 -13 16 -12 3 4 -13 16 -21 21 -21
13z"/>
<path d="M4035 3090 c-4 -6 -11 -7 -17 -4 -7 4 -8 2 -4 -4 4 -8 0 -12 -11 -12
-14 0 -15 -2 -4 -9 8 -6 10 -14 5 -22 -5 -8 -9 -18 -11 -24 -1 -5 -4 -21 -7
-35 -3 -14 -11 -27 -16 -28 -8 -3 -8 -8 0 -17 8 -9 4 -11 -17 -9 -16 2 -22 1
-15 -2 6 -3 9 -10 6 -15 -4 -6 -10 -6 -18 0 -9 8 -13 7 -13 -4 0 -8 4 -12 8
-9 4 2 15 -4 25 -13 17 -17 18 -17 11 0 -4 10 -3 16 2 12 5 -3 12 1 15 7 3 7
3 3 0 -9 -3 -14 -1 -23 6 -23 6 0 8 -4 5 -10 -4 -6 1 -7 11 -3 13 5 15 3 9 -8
-7 -12 -6 -12 7 -1 14 11 17 10 20 -10 2 -17 10 -23 28 -24 39 -2 49 5 45 34
-2 15 -2 21 1 15 3 -7 10 -13 15 -13 6 0 7 5 3 11 -9 15 16 60 29 52 6 -3 7
-1 3 5 -3 5 0 13 6 16 7 3 2 3 -12 0 -24 -5 -24 -4 -6 10 10 9 22 13 27 11 4
-3 10 -1 14 4 3 6 -4 8 -17 6 l-23 -4 23 19 c29 24 28 30 -4 24 -18 -3 -23 -1
-18 7 5 9 2 10 -10 6 -12 -5 -16 -2 -14 10 2 10 -1 18 -7 18 -5 0 -17 4 -25
10 -13 8 -13 7 -1 -8 7 -9 18 -14 25 -10 6 4 5 -1 -3 -10 -15 -18 -26 -23 -16
-7 3 6 2 10 -4 10 -6 0 -13 11 -17 25 -3 13 -11 23 -18 22 -6 -1 -10 4 -8 11
3 15 -4 16 -13 2z m14 -24 c10 -12 8 -13 -8 -9 -12 3 -18 9 -15 14 7 12 10 11
23 -5z m-28 -56 c-6 -3 -13 -17 -16 -30 -2 -12 -7 -25 -10 -29 -4 -3 -3 8 0
24 4 17 7 35 7 42 1 6 8 9 16 6 9 -4 10 -8 3 -13z m-7 -128 c3 -5 -1 -9 -9 -9
-8 0 -15 4 -15 9 0 4 4 8 9 8 6 0 12 -4 15 -8z m56 -47 c0 -2 -6 -5 -13 -8 -8
-3 -14 1 -14 8 0 7 6 11 14 8 7 -3 13 -6 13 -8z"/>
<path d="M3885 3011 c-3 -5 -1 -12 5 -16 6 -4 8 -10 5 -15 -3 -4 3 -14 13 -21
14 -11 15 -11 5 1 -10 11 -10 17 0 29 10 12 9 13 -2 6 -11 -6 -13 -4 -8 8 7
18 -8 24 -18 8z"/>
<path d="M1080 2996 c0 -2 7 -9 15 -16 9 -7 15 -8 15 -2 0 5 -7 12 -15 16 -8
3 -15 4 -15 2z"/>
<path d="M1049 2985 c-1 -3 -2 -8 -3 -12 -1 -5 -5 -14 -10 -22 -5 -8 -5 -12 0
-9 5 3 20 -6 34 -20 14 -13 19 -21 12 -17 -9 4 -15 0 -19 -14 -3 -11 -10 -18
-16 -14 -6 3 -7 1 -3 -6 4 -6 13 -8 19 -4 7 4 6 0 -2 -10 -7 -9 -18 -14 -24
-10 -6 3 -7 1 -3 -6 6 -9 14 -8 34 5 27 17 27 17 10 -3 -16 -18 -16 -21 -2
-39 14 -18 15 -18 4 4 -14 28 -3 28 20 0 16 -20 20 -21 36 -8 10 8 15 10 12 5
-4 -6 2 -16 13 -23 16 -10 20 -10 25 2 3 8 5 20 3 27 -3 27 1 40 12 34 6 -4 5
2 -2 13 -7 12 -17 18 -23 15 -5 -3 -6 -1 -2 6 6 9 11 9 22 0 11 -9 14 -8 14 5
0 9 -5 16 -12 16 -6 0 -8 3 -5 6 4 4 12 2 20 -4 9 -8 17 -8 27 0 12 8 12 9 -2
4 -12 -3 -18 0 -18 10 0 8 4 13 9 9 5 -3 13 0 17 6 4 8 3 9 -4 5 -11 -7 -17 6
-13 27 1 5 -3 6 -9 2 -6 -3 -8 -10 -5 -15 3 -5 0 -12 -6 -16 -8 -4 -9 -3 -5 4
4 7 2 12 -4 12 -6 0 -8 5 -4 12 4 7 3 8 -5 4 -6 -4 -9 -11 -7 -15 3 -4 -7 -7
-22 -6 -15 1 -26 7 -24 13 1 7 -5 12 -13 12 -8 0 -15 -5 -15 -12 0 -6 -6 -4
-13 7 -9 11 -19 15 -27 10 -9 -5 -11 -4 -6 3 4 7 2 12 -3 12 -6 0 -12 -2 -12
-5z m41 -51 c0 -2 -9 0 -20 6 -11 6 -20 13 -20 16 0 2 9 0 20 -6 11 -6 20 -13
20 -16z m35 -132 c-3 -3 -11 0 -18 7 -9 10 -8 11 6 5 10 -3 15 -9 12 -12z m48
-2 c3 -11 1 -18 -4 -14 -5 3 -9 12 -9 20 0 20 7 17 13 -6z"/>
<path d="M1146 2962 c-3 -5 1 -9 9 -9 8 0 15 4 15 9 0 4 -4 8 -9 8 -6 0 -12
-4 -15 -8z"/>
<path d="M3936 2953 c-6 -14 -5 -15 5 -6 7 7 10 15 7 18 -3 3 -9 -2 -12 -12z"/>
<path d="M1038 2913 c6 -2 18 -2 25 0 6 3 1 5 -13 5 -14 0 -19 -2 -12 -5z"/>
<path d="M3876 2861 c-3 -5 1 -11 9 -14 9 -4 12 -1 8 9 -6 16 -10 17 -17 5z"/>
<path d="M4114 2833 c7 -13 -29 -37 -44 -28 -5 3 -12 0 -16 -6 -4 -7 -3 -9 4
-5 6 3 13 2 17 -4 4 -6 11 -5 20 4 8 8 20 16 27 19 10 4 10 7 -1 18 -8 8 -11
9 -7 2z"/>
<path d="M976 2559 c2 -4 -4 -12 -13 -18 -12 -7 -13 -10 -4 -11 10 0 11 -3 2
-14 -9 -11 -9 -16 0 -22 8 -5 9 -3 4 7 -8 12 -6 12 8 0 22 -18 22 -20 -8 -16
-14 1 -28 -2 -32 -8 -3 -6 -2 -8 3 -5 5 3 15 0 22 -8 11 -12 9 -14 -8 -14 -11
0 -20 -5 -20 -11 0 -5 5 -7 10 -4 6 3 10 1 10 -4 0 -6 5 -11 11 -11 5 0 7 5 3
12 -4 6 -3 8 4 4 6 -3 9 -15 7 -26 -2 -12 0 -18 4 -16 4 3 23 -6 41 -19 40
-29 36 -29 38 -10 1 8 3 22 4 30 1 8 5 12 9 9 5 -2 6 -11 3 -18 -3 -8 0 -17 7
-22 8 -4 10 -3 5 5 -4 6 -2 19 6 28 9 12 9 15 1 9 -7 -4 -13 -4 -14 1 0 4 -2
17 -3 29 -2 16 2 20 21 18 12 -1 25 2 28 6 3 5 -3 7 -15 5 -11 -2 -23 1 -26 7
-4 7 -2 8 4 4 7 -4 12 -2 12 4 0 6 4 9 9 5 15 -8 25 15 12 28 -8 8 -14 8 -23
-2 -11 -10 -10 -11 5 -6 9 4 17 3 17 -3 0 -6 -8 -9 -17 -8 -12 2 -17 11 -16
27 1 13 0 18 -3 11 -5 -10 -13 -8 -32 10 -15 13 -20 15 -13 6 10 -13 10 -18 2
-18 -7 0 -9 -5 -5 -12 6 -9 3 -9 -9 0 -9 8 -16 17 -15 20 2 22 -4 31 -21 29
-11 0 -18 -4 -15 -8z m22 -29 c-9 -13 -14 -16 -20 -7 -8 13 10 39 23 31 5 -3
3 -14 -3 -24z m72 -21 c0 -5 -4 -9 -8 -9 -5 0 -9 7 -9 15 0 8 4 12 9 9 4 -3 8
-9 8 -15z m-60 -93 c0 -3 -4 -8 -10 -11 -5 -3 -10 -1 -10 4 0 6 5 11 10 11 6
0 10 -2 10 -4z m36 -44 c-4 -3 -14 2 -24 13 -9 10 -11 15 -4 11 7 -4 12 -2 12
6 0 8 5 6 11 -5 6 -10 8 -21 5 -25z"/>
<path d="M3856 2558 c3 -5 10 -6 15 -3 13 9 11 12 -6 12 -8 0 -12 -4 -9 -9z"/>
<path d="M1085 2430 c-3 -6 1 -7 9 -4 18 7 21 14 7 14 -6 0 -13 -4 -16 -10z"/>
<path d="M1529 2243 c-13 -16 -12 -17 4 -4 9 7 17 15 17 17 0 8 -8 3 -21 -13z"/>
<path d="M1536 2094 c-5 -14 -4 -15 9 -4 17 14 19 20 6 20 -5 0 -12 -7 -15
-16z"/>
<path d="M1553 1998 c3 -9 1 -18 -6 -21 -6 -2 -4 -6 5 -10 13 -4 16 -1 13 15
-3 11 -7 23 -11 27 -4 3 -4 -2 -1 -11z"/>
<path d="M3780 2001 c0 -10 19 -25 25 -20 1 2 -3 10 -11 17 -8 7 -14 8 -14 3z"/>
<path d="M1556 1773 c-6 -14 -5 -15 5 -6 7 7 10 15 7 18 -3 3 -9 -2 -12 -12z"/>
<path d="M3743 1704 c0 -8 6 -14 14 -14 7 0 13 4 13 9 0 5 -6 11 -13 14 -8 3
-14 -1 -14 -9z"/>
<path d="M1577 1636 c-3 -8 -3 -17 0 -20 10 -10 33 -7 33 4 0 5 -8 6 -17 3
-16 -6 -16 -5 -4 10 7 9 9 17 3 17 -5 0 -12 -6 -15 -14z"/>
<path d="M3729 1478 c-6 -21 -5 -37 2 -32 5 3 7 9 4 14 -3 4 1 11 7 13 10 4
10 6 1 6 -7 1 -13 0 -14 -1z"/>
<path d="M1597 1429 c7 -7 15 -10 18 -7 3 3 -2 9 -12 12 -14 6 -15 5 -6 -5z"/>
<path d="M3706 1311 c-3 -5 1 -11 9 -14 9 -4 12 -1 8 9 -6 16 -10 17 -17 5z"/>
<path d="M1628 1213 c7 -3 16 -2 19 1 4 3 -2 6 -13 5 -11 0 -14 -3 -6 -6z"/>
<path d="M3705 1160 c-3 -6 1 -7 9 -4 18 7 21 14 7 14 -6 0 -13 -4 -16 -10z"/>
<path d="M1616 1105 c4 -8 11 -15 16 -15 6 0 5 6 -2 15 -7 8 -14 15 -16 15 -2
0 -1 -7 2 -15z"/>
<path d="M1630 946 c0 -2 7 -7 16 -10 8 -3 12 -2 9 4 -6 10 -25 14 -25 6z"/>
<path d="M3605 821 c-3 -5 4 -13 16 -16 28 -9 33 -2 9 13 -11 6 -21 8 -25 3z"/>
<path d="M1690 725 c0 -8 -5 -15 -11 -15 -7 0 0 -9 14 -21 15 -11 26 -23 26
-27 -1 -4 -1 -14 0 -22 1 -13 2 -13 11 0 5 8 5 19 0 25 -4 5 -8 12 -8 15 -1
12 -22 60 -27 60 -3 0 -5 -7 -5 -15z m21 -32 c13 -16 12 -17 -3 -4 -17 13 -22
21 -14 21 2 0 10 -8 17 -17z"/>
<path d="M3570 675 c-11 -13 -10 -14 4 -9 9 3 16 10 16 15 0 13 -6 11 -20 -6z"/>
<path d="M2010 451 c0 -5 7 -15 17 -22 15 -13 15 -12 4 9 -12 23 -21 28 -21
13z"/>
<path d="M2995 400 c3 -5 8 -10 11 -10 2 0 4 5 4 10 0 6 -5 10 -11 10 -5 0 -7
-4 -4 -10z"/>
</g>
</svg>
